<svg width="28" height="28" viewBox="0 0 28 28" fill="none" xmlns="http://www.w3.org/2000/svg">
<g clip-path="url(#clip0_38_1465)">
<path d="M10.0747 1.87425C10.1734 1.9333 10.2594 2.01119 10.3279 2.10349C10.3964 2.19578 10.446 2.30067 10.4739 2.41215C10.5019 2.52363 10.5076 2.63953 10.4908 2.75322C10.4739 2.86691 10.4348 2.97617 10.3757 3.07475L5.92025 10.5H22.0798L17.6225 3.07475C17.5032 2.87564 17.4679 2.6373 17.5244 2.41216C17.5808 2.18703 17.7244 1.99353 17.9235 1.87425C18.1226 1.75497 18.361 1.71967 18.5861 1.77612C18.8112 1.83257 19.0047 1.97614 19.124 2.17525L24.1203 10.5H27.125C27.3571 10.5 27.5796 10.5922 27.7437 10.7563C27.9078 10.9204 28 11.1429 28 11.375V13.125C28 13.3571 27.9078 13.5796 27.7437 13.7437C27.5796 13.9078 27.3571 14 27.125 14H0.875C0.642936 14 0.420376 13.9078 0.256282 13.7437C0.0921872 13.5796 0 13.3571 0 13.125V11.375C0 11.1429 0.0921872 10.9204 0.256282 10.7563C0.420376 10.5922 0.642936 10.5 0.875 10.5H3.87975L8.8725 2.17525C8.93155 2.07665 9.00944 1.99064 9.10174 1.92215C9.19403 1.85365 9.29891 1.80401 9.41039 1.77606C9.52188 1.74811 9.63777 1.74239 9.75147 1.75924C9.86516 1.77609 9.97442 1.81517 10.073 1.87425H10.0747ZM5.9395 26.25L3.3495 15.75H1.652L4.32075 26.9955C4.38986 27.2818 4.55325 27.5365 4.78465 27.7187C5.01604 27.9009 5.30199 28 5.5965 28H22.407C22.7018 28.0004 22.9882 27.9015 23.2199 27.7193C23.4517 27.537 23.6153 27.2821 23.6845 26.9955L26.348 15.75H24.647L22.0588 26.25H5.94125H5.9395Z" fill="#976A11"/>
</g>
<defs>
<clipPath id="clip0_38_1465">
<rect width="28" height="28" fill="white"/>
</clipPath>
</defs>
</svg>
