<svg width="28" height="28" viewBox="0 0 28 28" fill="none" xmlns="http://www.w3.org/2000/svg">
<path d="M12.8337 4.66667C12.8337 5.311 13.356 5.83333 14.0003 5.83333C14.6447 5.83333 15.167 5.311 15.167 4.66667C15.167 4.02233 14.6447 3.5 14.0003 3.5C13.356 3.5 12.8337 4.02233 12.8337 4.66667Z" stroke="#976A11" stroke-width="2.33333"/>
<path d="M12.8337 14C12.8337 14.6443 13.356 15.1667 14.0003 15.1667C14.6447 15.1667 15.167 14.6443 15.167 14C15.167 13.3557 14.6447 12.8333 14.0003 12.8333C13.356 12.8333 12.8337 13.3557 12.8337 14Z" stroke="#976A11" stroke-width="2.33333"/>
<path d="M12.8337 23.3333C12.8337 23.9777 13.356 24.5 14.0003 24.5C14.6447 24.5 15.167 23.9777 15.167 23.3333C15.167 22.689 14.6447 22.1667 14.0003 22.1667C13.356 22.1667 12.8337 22.689 12.8337 23.3333Z" stroke="#976A11" stroke-width="2.33333"/>
</svg>
