<svg width="29" height="28" viewBox="0 0 29 28" fill="none" xmlns="http://www.w3.org/2000/svg">
<g clip-path="url(#clip0_38_1456)">
<path d="M21.0902 18.102C22.7847 15.7897 23.5437 12.9228 23.2153 10.075C22.8868 7.22716 21.4952 4.60834 19.3188 2.74247C17.1424 0.876605 14.3418 -0.098701 11.4772 0.011677C8.6126 0.122055 5.89531 1.30998 3.86895 3.33778C1.8426 5.36559 0.656621 8.08373 0.548293 10.9484C0.439964 13.8131 1.41727 16.613 3.2847 18.7881C5.15212 20.9631 7.77194 22.3529 10.62 22.6793C13.4681 23.0057 16.3344 22.2447 18.6455 20.5485H18.6437C18.6962 20.6185 18.7522 20.685 18.8152 20.7497L25.5527 27.4872C25.8809 27.8156 26.326 28.0002 26.7902 28.0003C27.2545 28.0005 27.6997 27.8163 28.0281 27.4881C28.3565 27.16 28.541 26.7148 28.5412 26.2506C28.5414 25.7864 28.3571 25.3411 28.029 25.0127L21.2915 18.2752C21.2289 18.2119 21.1616 18.1534 21.0902 18.1002V18.102ZM21.5417 11.375C21.5417 12.639 21.2928 13.8906 20.8091 15.0583C20.3254 16.2261 19.6164 17.2871 18.7226 18.1809C17.8289 19.0747 16.7678 19.7836 15.6001 20.2673C14.4323 20.751 13.1807 21 11.9167 21C10.6528 21 9.40116 20.751 8.2334 20.2673C7.06565 19.7836 6.00459 19.0747 5.11083 18.1809C4.21707 17.2871 3.50809 16.2261 3.02439 15.0583C2.54069 13.8906 2.29173 12.639 2.29173 11.375C2.29173 8.82228 3.30579 6.37413 5.11083 4.56909C6.91587 2.76405 9.36402 1.74999 11.9167 1.74999C14.4694 1.74999 16.9176 2.76405 18.7226 4.56909C20.5277 6.37413 21.5417 8.82228 21.5417 11.375Z" fill="#976A11"/>
</g>
<defs>
<clipPath id="clip0_38_1456">
<rect width="28" height="28" fill="white" transform="translate(0.541748)"/>
</clipPath>
</defs>
</svg>
